# xmcd CD database file
#
# Track frame offsets:
#	150
#	34308
#	55287
#	81256
#	101552
#	137072
#	170415
#	191734
#	225043
#	252459
#	280385
#	301789
#	321627
#
# Disc length: 4536 seconds
#
# Revision: 0
# Processed by: cddbd v1.5.1PL0 Copyright (c) Steve Scherf et al.
# Submitted via: CDex 1.51
#
DISCID=b611b60d
DTITLE=Blue Note by Bobby Flores - Sopa Negra
DYEAR=2005
DGENRE=Jazz
TTITLE0=As-Gene Harris
TTITLE1=Smiles Faces Sometimes-Bobbi Humphrey
TTITLE2=Tune Up-Sonny Rollins
TTITLE3=While I´m Alone-Maze
TTITLE4=Maiden Voyage-Herbie Hancock
TTITLE5=Greazy-Jackie MacLean
TTITLE6=After the rain-Duke Pearson
TTITLE7=Say it Loud-Lou Donaldson
TTITLE8=You don't Know What Love Is-Cassandra Wilson
TTITLE9=I'll Wind-Ike Quebec
TTITLE10=Un Poco Loco-Bud Powell Trio
TTITLE11=Gee Baby ain't Good to You-Kenny Burrell
TTITLE12=Mercy, Mercy, Mercy-Cannonball Adderley
EXTD=YEAR: 2005
EXTT0=
EXTT1=
EXTT2=
EXTT3=
EXTT4=
EXTT5=
EXTT6=
EXTT7=
EXTT8=
EXTT9=
EXTT10=
EXTT11=
EXTT12=
PLAYORDER=
